<svg xmlns="http://www.w3.org/2000/svg" viewBox="0 0 512 512">
  <g id="Icon6" data-name="Icon6">
    <path fill="current" d="M512,512H0V0H512Z" />
    <path fill="#FFF" d="M275.88,194.52c-.94-34,23.43-65.64,60-73.32,31.42-6.61,60,12.06,66.41,41.05,6.21,27.91-11.4,57-39.36,63.7-11.57,2.75-22.48,2.33-32.65-4.91-19.44-13.83-17.43-44.78,3.75-55.73a42,42,0,0,1,11.62-4.08c8.25-1.55,15,2.71,16.77,10.82,1.45,6.56-3.12,12.32-11.23,14.18-1.75.41-3.75.48-5.19,1.4-3,1.91-4.75,4.89-3.74,8.51a7.48,7.48,0,0,0,7.2,5.81c13.9,1.05,27.47-11.35,28.66-25.35,1.51-17.8-13-31.49-30.1-31.07-21.64.54-42.32,18.51-46.2,40-5.46,30.26,18.57,57.89,48.81,57.64,33.32-.27,62.64-25.64,67.58-57.43a95.82,95.82,0,0,0,.88-10.38c.39-8.35,6.35-14.73,13.42-14.37,7.52.37,12.86,6.49,12.36,15.13-2,34.33-17.29,60.91-46.63,79.16A88.86,88.86,0,0,1,349.1,268.7a74.2,74.2,0,0,1-72.31-61.3A88.75,88.75,0,0,1,275.88,194.52Z" />
    <path fill="#FFF" d="M236,193.15c.94,36.37-25.59,68.7-62.68,74.73-30.37,4.94-56.35-12.1-63.75-41.79-6.07-24.37,8.92-52.43,32.68-61.17,10.81-4,21.58-5.75,32.8-1.14,13.55,5.57,22,20.58,19.85,36-1.91,13.62-14.23,25.6-27.95,27.19-9.59,1.11-14.87-1.58-17-8.68C147.5,210.43,153,203.1,162.44,202c3.77-.45,6.25-2.36,7.24-5.81s-.48-6.33-3.3-8.23c-3.46-2.34-7.54-1.5-11.12-.66C141,190.67,132,204.43,134,219.32c1.79,13.41,14,23.56,28.21,23.7a48.51,48.51,0,0,0,48.53-53c-2.19-25.79-24.1-43.68-46.75-44.37-34.45-1.05-65,23.21-70.91,59.42-.67,4.08.29,8.28-.94,12.38-1.91,6.38-7.31,10.83-12.91,10.29a13.63,13.63,0,0,1-12.17-13.5c.45-20.22,6.19-38.83,18.33-55.13,15.51-20.84,36.21-33.57,61.81-38,42.6-7.41,81.11,20.39,87.94,60.47A87.58,87.58,0,0,1,236,193.15Z" />
    <path fill="#FFF" d="M118.12,331.92c14.9-.13,27.21,6,38,15.79,4.18,3.81,7.89,8.07,12.42,11.54,12.33,9.46,27.15,8.61,38.8-1.89,8.2-7.39,15.62-15.74,26-20.59,18.83-8.8,43.22-5.47,58.5,8.53,5.14,4.72,10,9.85,15.42,14.17,11.93,9.43,27.9,8.34,38.92-2.19,7.55-7.21,14.69-14.9,24.32-19.54,20.49-9.87,39.78-7.38,58,5.62A12.85,12.85,0,0,1,431.33,361a12.64,12.64,0,0,1-17.7,2.91c-7.35-5.28-15.13-7.61-24.22-6.08-7.47,1.26-13,5.62-18.14,10.5s-10.4,10.28-16.54,14.34c-19,12.61-45.49,11-63.16-3.41-5.81-4.74-10.77-10.33-16.6-15.05-11.73-9.51-27.7-9.2-38.91,1-8.43,7.66-16.19,16.11-26.81,21.13-18.37,8.67-42.67,5.37-57.67-8.21-5.42-4.91-11-9.63-16.27-14.67-8.3-7.94-26.79-8-35.71,0-6.77,6.05-15.15,4.37-19.55-2.93-3.4-5.64-2-12.34,3.62-16.74C93.78,336,105.19,331.71,118.12,331.92Z" />
  </g>
</svg>