<svg xmlns="http://www.w3.org/2000/svg" viewBox="0 0 320 320">
  <g id="Icon1" data-name="Icon1">
    <path fill="current" d="M.06,160Q.06,81.87,0,3.7C0,1,.18,0,3.45,0Q160.08.2,316.7,0c2.82,0,3.3.63,3.3,3.35q-.13,156.59,0,313.16c0,2.56-.22,3.44-3.21,3.44Q159.91,319.82,3,320c-3.47,0-3-1.51-3-3.64Q.07,238.2.06,160Z" />
    <path fill="#FFF" d="M160.48,240.68c-19.23-1.35-37.36-4.17-52.12-17.08a49.77,49.77,0,0,1-14.59-21.07c-.86-2.45-1-4.49,1.26-6.24s4.23-1.07,6.28.5c12.15,9.3,26.32,13.17,41.17,15,19.2,2.36,38.24,1.62,56.58-4.94,6.63-2.38,12.75-6.26,19-9.68,2.23-1.22,4.08-2.95,6.73-1s2.25,4.52,1.21,7.12c-6.07,15.33-17.44,25.16-32.47,31.17C182.72,238.73,171.28,239.64,160.48,240.68Z" />
    <path fill="#FFF" d="M129.17,110.89c-.29,8.92-2.3,16.53-7.27,23.14-7.85,10.44-20.21,11-29.08,1.41-11.66-12.63-11.7-36.5.19-49,10.2-10.67,19.43-9.32,28.69,1.43C127.45,94.57,129.08,103,129.17,110.89Z" />
    <path fill="#FFF" d="M190.8,111.18c.27-8.83,1.92-17.4,8.22-23.92a31.07,31.07,0,0,1,11.88-7.71c5.75-2,10.57,1.83,14.71,5.47,6,5.29,8.78,12.51,9.86,20.18,1.66,11.74-.95,22.54-9.33,31.32-7.8,8.16-19.34,7.62-26.77-.94C194,129.36,190.86,120.51,190.8,111.18Z" />>
  </g>
</svg>