<svg xmlns="http://www.w3.org/2000/svg" viewBox="0 0 320 320">
  <g id="Icon5" data-name="Icon5">
    <path fill="current" d="M0,0H320V320H0Z" />
    <path fill="#FFF" d="M160.24,253.45c-27.09.22-42.44-19.36-48.58-37.65-.76-2.25-.63-4.29,1.37-5.87a3.74,3.74,0,0,1,4.65-.33c9.32,6.13,20,7.08,30.63,7.82,13.66,1,27.31.67,40.76-2.39,4.4-1,8.7-2.3,12.5-4.88,1.8-1.21,3.65-1.63,5.52-.11s2.07,3.63,1.31,5.87C202,234.74,186.55,253.48,160.24,253.45Z" />
    <path fill="#FFF" d="M124.4,145.49c0,10.4-2.3,18.61-8.27,25.44-8.08,9.23-19.61,9.18-27.74.06-11.14-12.49-11.17-36-.06-48.47,8.26-9.28,20.09-9.17,28.09.33A34.52,34.52,0,0,1,124.4,145.49Z" />
    <path fill="#FFF" d="M215.1,128.92c11.69.18,21.63,6.86,29.85,16.74a59.59,59.59,0,0,1,7.39,11.26c1.13,2.24,1.55,4.49-.56,6.38-1.92,1.72-3.89,1-6,0q-32.41-15.85-64.85,0c-2.12,1-4,1.65-5.95-.1a4.34,4.34,0,0,1-1.16-5C178.48,143.3,197.84,128.9,215.1,128.92Z" />
    <path fill="#FFF" d="M199.57,84.05c24.68.55,46,8.52,62.39,27.69a31.77,31.77,0,0,1,3.58,4.79,8.57,8.57,0,0,1-2.31,11.19,8.4,8.4,0,0,1-11.38-.51c-2-2-3.63-4.36-5.6-6.38-15.6-15.91-34.93-20.38-56.36-18.19-6.7.68-11.28-2-12-7.42s3-9.27,9.77-10.24c1.48-.22,3-.47,4.46-.57C194.61,84.23,197.11,84.16,199.57,84.05Z" />
    <path fill="#FFF" d="M112.3,57.54c7.92-.12,11.77,2.92,12,8.24s-3.11,8.83-9.38,9.46c-21.24,2.12-38,12.29-51.62,28.35-1.08,1.27-2,2.65-3.16,3.87-3.51,3.81-8.27,4.37-12.09,1.48-4-3-4.91-8-1.74-12.39A96.64,96.64,0,0,1,72.76,71.66C85.32,63.6,99,58.72,112.3,57.54Z" />
  </g>
</svg>