<svg xmlns="http://www.w3.org/2000/svg" viewBox="0 0 320 320">
  <g id="Icon2" data-name="Icon2">
    <path fill="current" d="M320,320H0V0H320Z" />
    <path fill="#FFF" d="M233,177.78a96.75,96.75,0,0,1-29.4-5.44c-14.13-5.18-22.9-15.15-26.6-29.5-2.07-8-3.56-16.25-5-24.43-1.57-9-8.7-11.31-15.54-9.52C152.17,110,150,113,149.19,117c-1.15,5.37-2,10.8-3.09,16.18-.73,3.59-1.53,7.17-2.54,10.68-4.45,15.58-14.82,25.36-30.17,29.83A89.68,89.68,0,0,1,56.49,172c-10.17-3.68-17.06-10.54-21.13-20.56-4.18-10.3-5.89-21.12-7.35-32a6.61,6.61,0,0,1-.08-1c.1-9.12-4.18-14.91-12.84-18-4.89-1.72-7.15-8.86-4.59-13.31A4.48,4.48,0,0,1,14,85.38c7.64.7,14.62-.91,21.69-4,15.9-6.95,32.75-9.72,50.11-9.7,12.63,0,24.92,1.68,36.67,6.38a52.61,52.61,0,0,1,11.11,5.6,27.18,27.18,0,0,0,16,5c9.13.12,18.29-.27,27.42-.78a14.61,14.61,0,0,0,7-2.38C196,77.37,209.5,73.28,223.78,72.12c20.33-1.67,40.28.58,59.26,8.47,7.77,3.23,15.39,6,24,4.64,2.67-.43,5.31,4.49,4.46,8-.82,3.3-2.06,6.32-5.83,7.39a32,32,0,0,0-3.17,1.45c-6,2.45-8.74,7-9.44,13.42-.89,8.09-2.56,16.09-3.9,24.13a3.88,3.88,0,0,1-.11.49C283.13,163,274.6,171,250.29,175.89,244.61,177,238.74,177.17,233,177.78Z" />
    <path fill="#FFF" d="M160.94,262.84c-16.39-1.31-31.53-3.17-45-11.55A53.62,53.62,0,0,1,95.4,228.73c-.64-1.34-1-2.8-1.64-4.16-1.06-2.4-1-4.49,1.24-6.24s4.17-1,6.31.48a95.76,95.76,0,0,0,11,6.74c12.12,6,25.23,8.42,38.56,9.19,16.36.94,32.56-.32,48.25-5.69a69,69,0,0,0,19.4-10c3.12-2.35,4.94-2.26,7-.17,1.66,1.68,1.46,3.47.74,5.52-4,11.47-11.57,20.06-21.66,26.54a66.51,66.51,0,0,1-25.52,9.56C172.76,261.5,166.31,262.15,160.94,262.84Z" />
    <path fill="current" d="M83.83,89.8c13.2.12,23.49.69,33.39,4.13,8.76,3,12.69,8.31,12.69,17.57A89.49,89.49,0,0,1,126,139.07a25.37,25.37,0,0,1-16.3,17c-16.33,6-32.36,4.42-48.29-1.48A13.59,13.59,0,0,1,53,145.9c-1.69-5-3.48-10.12-4.33-15.33a234.61,234.61,0,0,1-2.91-25.74C45.38,97.54,47,96,54.11,94.06,64.77,91.12,75.62,89.63,83.83,89.8Z" />
    <path fill="current" d="M235.45,89.84a113.6,113.6,0,0,1,32.27,4.45c5.55,1.56,7.3,3.41,7.29,9.17a124.11,124.11,0,0,1-6.74,41.18c-1.53,4.37-4.06,8-8.67,9.75-15.89,6-31.88,7.6-48.27,1.79-9.13-3.24-14.6-9.55-17.21-18.61a89.35,89.35,0,0,1-3.23-27.17c.21-8,4.23-13.39,11.79-16.21C209.66,91.58,221.52,89.85,235.45,89.84Z" />
    <path fill="#FFF" d="M121.24,124.68a31.39,31.39,0,0,1-6.15,20.78c-6.54,8.8-16.53,9.28-23.81,1.18-10.2-11.34-9.88-34,.63-44.62,7.25-7.34,16.5-6.84,22.8,1.34A31.38,31.38,0,0,1,121.24,124.68Z" />
    <path fill="#FFF" d="M199.12,124.63c.23-7.54,1.91-14.74,6.59-21,6.57-8.73,16.61-9.1,23.8-.82,6.42,7.4,8,16.31,7.18,25.68-.6,6.88-2.67,13.36-7.68,18.54-7.33,7.59-16.63,7.1-23.12-1.32C201.12,139.56,199.35,132.4,199.12,124.63Z" />
  </g>
</svg>