<svg xmlns="http://www.w3.org/2000/svg" viewBox="0 0 320 320">
  <g id="Icon3" data-name="Icon3">
    <path fill="current" d="M0,0H320V320H0Z" />
    <path fill="#FFF" d="M160,213.18h57.42c1.33,0,2.67-.06,4,0,6,.43,9.86,4.16,9.72,9.26-.14,4.79-4.59,9-10,9.4-1,.07-2,0-3,0q-58.19,0-116.35,0a19.19,19.19,0,0,1-5.43-.44c-5.1-1.52-8.11-5.93-7.43-10.46.71-4.81,4.49-7.75,10.61-7.77C119.72,213.13,139.86,213.18,160,213.18Z" />
    <path fill="#FFF" d="M240.09,145.5c0,9.26-1.83,16.54-6.38,23.06-8.46,12.12-22.29,12.54-31.29.91-9.89-12.78-9.18-35.26,1.5-47.4,8.14-9.26,19.93-9.18,28,.34A34.28,34.28,0,0,1,240.09,145.5Z" />
    <path fill="#FFF" d="M124.43,146.37c.14,9.83-2.26,18.33-8.8,25.21-8.6,9-20.25,8.42-28.11-1.3-10.32-12.74-10.24-34.78.16-47.4,8.57-10.4,20.8-10.26,29.24.27C122.5,130.11,124.59,138.11,124.43,146.37Z" />
  </g>
</svg>