<svg xmlns="http://www.w3.org/2000/svg" viewBox="0 0 320 320">
  <g id="Icon4" data-name="Icon4">
    <circle fill="current" cx="160" cy="160" r="226.27" />
    <path fill="#FFF" d="M91.5,108.28c-2.82-1-5.72-.18-8.4-1.24-4.36-1.73-7.12-5.32-7.12-9.81a10.2,10.2,0,0,1,6.55-9.69A11.88,11.88,0,0,1,87,86.91c13.83,0,27.66,0,41.48,0,5.94,0,10.08,3.75,10.55,9.15.48,5.57-2.65,9.5-8.45,11.2-2.09.61-4.32.06-6.47,1,.09,2.5,1.51,4.44,2.19,6.61,3.6,11.45,3.18,22.62-2.2,33.44a25.62,25.62,0,0,1-3.22,5c-8.4,10-19.32,9.87-26.89-.45C85,140.67,84.4,127,89.48,113,90,111.47,90.77,110,91.5,108.28Z" />
    <path fill="#FFF" d="M229.68,108.44a43.19,43.19,0,0,1,5.09,17.71c.54,10.82-1.76,20.9-9.45,29-7.13,7.52-16.48,7.31-23.57-.33a32.77,32.77,0,0,1-8.61-19.75c-1-10.8-.67-14.19,4.51-26.83-2.51-.94-5.21-.23-7.75-1.09-4.94-1.67-8.29-6-7.81-10.81a10.41,10.41,0,0,1,10-9.36q21.72-.21,43.43,0a9.89,9.89,0,0,1,9.66,8.47,10.55,10.55,0,0,1-6.3,11.3C236.1,108,233,107.36,229.68,108.44Z" />
    <path fill="#FFF" d="M159.35,248c-14.5.49-30.11-.59-45.67-2.23A173.69,173.69,0,0,1,95,242.68a10.22,10.22,0,0,1-8.3-8.34c-.81-4,.63-7.23,3.61-9.78a10,10,0,0,1,8.84-2.3c17.52,3.5,35.26,4.65,53.08,4.84,14.82.16,29.64.1,44.42-1.25,8.1-.74,16.31-1.31,24.15-3.43,5.71-1.54,12.63,2.28,13.82,8.21,1.11,5.56-2.57,10.75-9.11,12.22-10.07,2.26-20.34,3.24-30.6,4.17A345.27,345.27,0,0,1,159.35,248Z" />
  </g>
</svg>